<svg width="200" height="200" viewBox="0 0 200 200" fill="none" xmlns="http://www.w3.org/2000/svg">
<g clip-path="url(#clip0_771669_157)">
<path fill-rule="evenodd" clip-rule="evenodd" d="M100.067 124.908C107.672 124.908 111.474 117.982 115.277 117.982C117.558 117.982 122.122 122.311 123.643 124.042C125.164 124.908 126.685 125.774 128.206 127.506L135.811 133.566C137.332 135.298 138.853 136.164 139.613 137.029C147.218 143.09 147.979 146.553 154.063 138.761C155.584 137.029 158.626 129.237 155.584 127.506L125.164 111.921C116.037 107.592 122.122 105.861 119.84 92.8737C119.079 91.1421 119.84 92.0079 118.319 91.1421C116.798 100.666 116.037 106.726 109.953 115.384L100.067 124.908Z" fill="black"/>
<path fill-rule="evenodd" clip-rule="evenodd" d="M191.327 137.896C177.638 167.333 147.978 186.381 113.755 186.381C87.8974 186.381 65.082 175.991 49.1112 157.809L48.3507 156.944C39.2245 147.42 33.901 136.164 30.0984 123.177C34.6615 165.602 69.6451 199.368 112.234 199.368C149.499 199.368 180.68 173.394 191.327 137.896Z" fill="#FF0000" stroke="#FF0000" stroke-width="0.287895"/>
<path fill-rule="evenodd" clip-rule="evenodd" d="M118.318 180.32C140.373 180.32 160.147 170.796 174.596 153.48C173.836 154.346 173.075 154.346 171.554 154.346H170.794H169.273H167.752V143.956C166.991 144.822 166.231 145.688 165.47 146.554V149.151C165.47 150.883 164.71 151.748 163.949 153.48C163.949 154.346 162.428 154.346 160.907 154.346C160.147 154.346 159.386 154.346 158.626 153.48C144.936 165.601 128.205 172.527 109.953 172.527C93.2215 172.527 78.0112 167.333 65.0825 156.077C78.7718 171.662 97.7846 180.32 118.318 180.32ZM172.315 136.164C173.075 136.164 173.836 136.164 174.596 137.03L172.315 136.164ZM172.315 141.359C172.315 142.225 172.315 143.09 172.315 143.09C172.315 143.09 172.315 143.09 172.315 143.956C172.315 143.09 172.315 142.225 172.315 141.359ZM172.315 140.493C172.315 140.493 172.315 140.493 172.315 141.359V140.493ZM172.315 139.627C172.315 139.627 172.315 139.627 172.315 140.493C172.315 140.493 172.315 140.493 172.315 139.627ZM170.794 139.627H171.554C171.554 139.627 171.554 139.627 172.315 139.627C171.554 139.627 171.554 139.627 170.794 139.627ZM170.794 143.956H171.554C170.794 143.956 170.794 143.956 170.794 143.956ZM170.794 146.554V150.883V154.346H171.554C171.554 154.346 172.315 154.346 173.075 154.346C173.075 154.346 173.836 153.48 174.596 153.48L175.357 151.748C189.046 136.164 196.651 113.653 196.651 90.2766C196.651 40.0602 161.668 -0.632324 118.318 -0.632324C100.066 -0.632324 82.5743 7.15987 68.8851 19.2811C81.0533 10.6231 95.503 5.42827 109.953 5.42827C151.781 5.42827 186.004 42.6576 186.004 89.4108C186.004 104.129 182.202 117.982 176.117 130.969C175.357 130.969 175.357 130.969 175.357 131.835C174.596 133.567 173.075 135.298 172.315 136.164C171.554 137.03 171.554 137.896 170.794 139.627V143.956V146.554ZM171.554 150.883C172.315 150.883 172.315 150.883 172.315 150.017C172.315 150.883 171.554 150.883 171.554 150.883ZM173.075 148.285C172.315 147.419 172.315 147.419 172.315 146.554C172.315 147.419 173.075 147.419 173.075 148.285Z" fill="#FF0000"/>
<path d="M174.596 153.48C160.147 170.796 140.373 180.32 118.318 180.32C97.7846 180.32 78.7718 171.662 65.0825 156.077C78.0112 167.333 93.2215 172.527 109.953 172.527C128.205 172.527 144.936 165.601 158.626 153.48C159.386 154.346 160.147 154.346 160.907 154.346C162.428 154.346 163.949 154.346 163.949 153.48C164.71 151.748 165.47 150.883 165.47 149.151V146.554C166.231 145.688 166.991 144.822 167.752 143.956V154.346H169.273H170.794M174.596 153.48C173.836 154.346 173.075 154.346 171.554 154.346M174.596 153.48C173.836 153.48 173.075 154.346 173.075 154.346C172.315 154.346 171.554 154.346 171.554 154.346M174.596 153.48L175.357 151.748C189.046 136.164 196.651 113.653 196.651 90.2766C196.651 40.0602 161.668 -0.632324 118.318 -0.632324C100.066 -0.632324 82.5743 7.15987 68.8851 19.2811C81.0533 10.6231 95.503 5.42827 109.953 5.42827C151.781 5.42827 186.004 42.6576 186.004 89.4108C186.004 104.129 182.202 117.982 176.117 130.969C175.357 130.969 175.357 130.969 175.357 131.835C174.596 133.567 173.075 135.298 172.315 136.164M171.554 154.346H170.794M170.794 154.346V150.883M171.554 150.883H170.794M171.554 150.883C172.315 150.883 172.315 150.883 172.315 150.017C172.315 150.883 171.554 150.883 171.554 150.883ZM170.794 150.883V146.554M172.315 136.164C173.075 136.164 173.836 136.164 174.596 137.03L172.315 136.164ZM172.315 136.164C171.554 137.03 171.554 137.896 170.794 139.627M172.315 141.359C172.315 142.225 172.315 143.09 172.315 143.09C172.315 143.09 172.315 143.09 172.315 143.956M172.315 141.359C172.315 142.225 172.315 143.09 172.315 143.956M172.315 141.359C172.315 140.493 172.315 140.493 172.315 140.493M172.315 141.359V140.493M172.315 143.956H171.554M172.315 140.493C172.315 139.627 172.315 139.627 172.315 139.627M172.315 140.493C172.315 140.493 172.315 140.493 172.315 139.627M172.315 139.627C171.554 139.627 171.554 139.627 171.554 139.627H170.794M172.315 139.627C171.554 139.627 171.554 139.627 170.794 139.627M170.794 139.627V143.956M171.554 143.956H170.794M171.554 143.956C170.794 143.956 170.794 143.956 170.794 143.956M170.794 143.956V146.554M170.794 146.554H171.554M173.075 144.822C173.075 144.822 173.075 144.822 173.836 144.822M173.075 149.151V148.285M173.075 148.285C172.315 147.419 172.315 147.419 172.315 146.554C172.315 147.419 173.075 147.419 173.075 148.285Z" stroke="#FF0000" stroke-width="0.287895"/>
<path fill-rule="evenodd" clip-rule="evenodd" d="M186.004 89.4108C186.004 104.129 182.202 117.982 176.118 130.969C175.357 130.969 175.357 130.969 175.357 131.835C174.597 133.567 173.076 135.298 172.315 136.164C173.836 136.164 174.597 137.03 175.357 137.896C176.118 138.761 176.118 139.627 176.118 140.493V141.359C176.118 142.225 176.118 142.225 175.357 143.956C175.357 143.956 174.597 144.822 173.076 144.822C173.076 144.822 175.357 144.822 175.357 145.688C176.118 146.554 176.118 147.419 176.118 148.285V149.151C176.118 150.017 176.118 150.883 175.357 151.748C189.047 136.164 196.652 113.653 196.652 90.2766C196.652 40.0602 161.668 -0.632324 118.319 -0.632324C100.067 -0.632324 82.5747 7.15987 68.8855 19.2811C81.0537 10.6231 95.5035 5.42827 109.953 5.42827C151.781 5.42827 186.004 42.6576 186.004 89.4108Z" fill="#FF0000" stroke="#FF0000" stroke-width="0.287895"/>
<path fill-rule="evenodd" clip-rule="evenodd" d="M169.273 146.553V143.956H170.794V139.627C169.273 141.359 168.512 142.224 167.752 143.956V154.346H169.273V150.882H170.794V146.553H169.273Z" fill="#FF0000" stroke="#FF0000" stroke-width="0.287895"/>
<path fill-rule="evenodd" clip-rule="evenodd" d="M172.315 146.554C172.315 147.419 173.076 147.419 173.076 148.285V149.151C173.076 150.017 172.315 150.017 172.315 150.017C172.315 150.883 172.315 150.883 171.555 150.883H170.794V154.346H171.555C173.076 154.346 173.836 154.346 174.597 153.48C174.597 153.48 175.357 152.614 175.357 151.748C189.047 136.164 196.652 113.653 196.652 90.2766C196.652 40.0602 161.668 -0.632324 118.319 -0.632324C100.067 -0.632324 82.5747 7.15987 68.8855 19.2811C81.0537 10.6231 95.5035 5.42827 109.953 5.42827C151.781 5.42827 186.004 42.6576 186.004 89.4108C186.004 104.129 182.202 117.982 176.118 130.969C175.357 130.969 175.357 130.969 175.357 131.835C174.597 133.567 173.076 135.298 172.315 136.164C171.555 137.03 171.555 137.896 170.794 139.627H171.555H172.315C172.315 140.493 172.315 140.493 172.315 141.359C172.315 142.225 172.315 143.09 172.315 143.09C172.315 143.956 171.555 143.956 171.555 143.956H170.794V146.554H171.555H172.315Z" fill="#FF0000"/>
<path d="M175.357 137.896C175.357 137.896 175.357 137.03 174.597 137.03C173.836 136.164 173.076 136.164 172.315 136.164M173.836 144.822C173.076 144.822 173.076 144.822 173.076 144.822M172.315 136.164C173.076 135.298 174.597 133.567 175.357 131.835C175.357 130.969 175.357 130.969 176.118 130.969C182.202 117.982 186.004 104.129 186.004 89.4108C186.004 42.6576 151.781 5.42827 109.953 5.42827C95.5035 5.42827 81.0537 10.6231 68.8855 19.2811C82.5747 7.15987 100.067 -0.632324 118.319 -0.632324C161.668 -0.632324 196.652 40.0602 196.652 90.2766C196.652 113.653 189.047 136.164 175.357 151.748C175.357 152.614 174.597 153.48 174.597 153.48C173.836 154.346 173.076 154.346 171.555 154.346H170.794V150.883H171.555C172.315 150.883 172.315 150.883 172.315 150.017C172.315 150.017 173.076 150.017 173.076 149.151V148.285C173.076 147.419 172.315 147.419 172.315 146.554H171.555H170.794V143.956H171.555C171.555 143.956 172.315 143.956 172.315 143.09C172.315 143.09 172.315 142.225 172.315 141.359C172.315 140.493 172.315 140.493 172.315 139.627H171.555H170.794C171.555 137.896 171.555 137.03 172.315 136.164Z" stroke="#FF0000" stroke-width="0.287895"/>
<path fill-rule="evenodd" clip-rule="evenodd" d="M172.315 141.359V140.493C172.315 140.493 172.315 140.493 172.315 139.627C171.554 139.627 171.554 139.627 170.794 139.627V143.956H171.554H172.315C172.315 143.09 172.315 143.09 172.315 143.09C172.315 143.09 172.315 142.224 172.315 141.359Z" fill="#FF0000" stroke="#FF0000" stroke-width="0.287895"/>
<path fill-rule="evenodd" clip-rule="evenodd" d="M170.794 146.553V143.956H169.273V146.553H170.794Z" fill="#FF0000" stroke="#FF0000" stroke-width="0.287895"/>
<path fill-rule="evenodd" clip-rule="evenodd" d="M170.794 150.883H169.273V154.346H170.794V150.883Z" fill="#FF0000" stroke="#FF0000" stroke-width="0.287895"/>
<path fill-rule="evenodd" clip-rule="evenodd" d="M163.949 153.48C164.71 151.749 165.47 150.883 165.47 149.151V146.554C163.949 147.42 163.189 149.151 162.428 150.017C162.428 150.017 162.428 150.017 161.668 150.883H160.907C160.147 151.749 159.386 152.614 158.625 153.48C159.386 154.346 160.147 154.346 160.907 154.346C162.428 154.346 163.949 154.346 163.949 153.48Z" fill="#FF0000" stroke="#FF0000" stroke-width="0.287895"/>
<path d="M44.3145 122.573C70.638 137.041 100.933 128.675 111.979 103.887C123.026 79.0985 110.642 47.2745 84.3184 32.806C57.9949 18.3375 27.7003 26.7033 16.6536 51.4917C5.60681 76.2801 17.991 108.104 44.3145 122.573Z" fill="#FF0000"/>
<path d="M55.9561 69.497C64.3565 69.497 71.1664 61.7443 71.1664 52.181C71.1664 42.6176 64.3565 34.865 55.9561 34.865C47.5557 34.865 40.7458 42.6176 40.7458 52.181C40.7458 61.7443 47.5557 69.497 55.9561 69.497Z" fill="#FDD005"/>
<path fill-rule="evenodd" clip-rule="evenodd" d="M65.0821 50.4498C65.0821 56.5104 60.5191 62.571 54.435 62.571C51.3929 62.571 49.1114 60.8394 46.8298 59.1078C49.1114 62.571 52.1534 65.1684 55.956 65.1684C62.0401 65.1684 66.6032 59.1078 66.6032 52.1814C66.6032 48.7182 65.8427 45.255 63.5611 43.5234C64.3216 45.255 65.0821 47.8524 65.0821 50.4498Z" fill="#E6E6E6" fill-opacity="0.4"/>
<path fill-rule="evenodd" clip-rule="evenodd" d="M52.9134 45.2549C55.1949 45.2549 56.716 46.9865 56.716 50.4497C56.716 52.1813 55.1949 54.7787 52.9134 54.7787C50.6319 54.7787 49.1108 52.1813 49.1108 50.4497C49.1108 46.9865 50.6319 45.2549 52.9134 45.2549Z" fill="#E6E6E6" fill-opacity="0.4"/>
</g>
<defs>
<clipPath id="clip0_771669_157">
<rect width="200" height="200" fill="white"/>
</clipPath>
</defs>
</svg>
