<svg width="191" height="173" viewBox="0 0 191 173" fill="none" xmlns="http://www.w3.org/2000/svg">
<path d="M98.0903 107.959L97.0757 108.837H98.4175C102.184 108.837 104.999 107.292 107.286 105.794C107.691 105.529 108.074 105.27 108.441 105.021C109.126 104.556 109.756 104.13 110.372 103.773C111.31 103.232 112.121 102.915 112.893 102.915C113.315 102.915 113.908 103.102 114.624 103.463C115.327 103.817 116.095 104.31 116.852 104.856C118.367 105.95 119.793 107.227 120.497 107.946L120.554 108.005L120.627 108.042C122.074 108.782 123.454 109.491 124.839 110.907L124.87 110.939L124.906 110.964L132.108 116.121C132.85 116.875 133.589 117.44 134.22 117.902C134.336 117.986 134.447 118.066 134.552 118.143C135.048 118.502 135.429 118.777 135.696 119.05L135.727 119.082L135.762 119.107C137.025 120.011 138.08 120.841 139.01 121.572C139.406 121.884 139.78 122.178 140.137 122.452C141.308 123.35 142.323 124.053 143.325 124.361C144.376 124.683 145.379 124.563 146.483 123.922C147.551 123.301 148.724 122.186 150.173 120.52C150.586 120.093 151.062 119.35 151.496 118.486C151.939 117.603 152.359 116.554 152.64 115.498C152.92 114.45 153.072 113.36 152.947 112.412C152.82 111.455 152.398 110.582 151.48 110.113L151.471 110.108L151.461 110.104L122.511 96.779L122.504 96.7761L122.498 96.7733C120.337 95.8524 119.164 95.1028 118.531 94.3636C117.932 93.663 117.783 92.9286 117.825 91.8867C117.846 91.3946 117.91 90.8394 117.984 90.2065C118.228 88.1142 118.571 85.1725 117.726 80.8516L117.713 80.7871L117.685 80.728C117.512 80.3748 117.428 80.1584 117.375 80.0197C117.371 80.0081 117.367 79.9959 117.362 79.9835C117.342 79.9294 117.32 79.8702 117.299 79.823C117.27 79.758 117.224 79.666 117.141 79.5802C117.056 79.4938 116.965 79.4458 116.9 79.4159C116.853 79.3944 116.794 79.3715 116.741 79.3509C116.729 79.3462 116.717 79.3416 116.706 79.3372C116.571 79.2841 116.36 79.1981 116.016 79.0219L115.414 78.7142L115.296 79.3795C115.237 79.7108 115.179 80.037 115.122 80.3585C113.785 87.9223 112.91 92.8689 107.462 99.8481L98.0903 107.959Z" fill="white" stroke="black"/>
<path fill-rule="evenodd" clip-rule="evenodd" d="M185.269 119.442C172.241 144.61 144.014 160.896 111.445 160.896C86.8368 160.896 65.1238 152.013 49.9247 136.468L49.201 135.727C40.5158 127.584 35.4494 117.961 31.8306 106.857C36.1732 143.13 69.4664 172 109.997 172C145.462 172 175.136 149.792 185.269 119.442Z" fill="#FF0000" stroke="#FF0000" stroke-width="0.287895"/>
<path fill-rule="evenodd" clip-rule="evenodd" d="M115.788 155.714C136.777 155.714 155.595 147.571 169.346 132.766C168.623 133.506 167.899 133.506 166.451 133.506H165.728H164.28H162.833V124.623C162.109 125.363 161.385 126.104 160.661 126.844V129.065C160.661 130.545 159.937 131.285 159.214 132.766C159.214 133.506 157.766 133.506 156.319 133.506C155.595 133.506 154.871 133.506 154.147 132.766C141.12 143.13 125.197 149.052 107.826 149.052C91.9034 149.052 77.4281 144.61 65.124 134.987C78.1518 148.311 96.246 155.714 115.788 155.714ZM167.175 117.961C167.899 117.961 168.623 117.961 169.346 118.701L167.175 117.961ZM167.175 122.402C167.175 123.143 167.175 123.883 167.175 123.883C167.175 123.883 167.175 123.883 167.175 124.623C167.175 123.883 167.175 123.143 167.175 122.402ZM167.175 121.662C167.175 121.662 167.175 121.662 167.175 122.402V121.662ZM167.175 120.922C167.175 120.922 167.175 120.922 167.175 121.662C167.175 121.662 167.175 121.662 167.175 120.922ZM165.728 120.922H166.451C166.451 120.922 166.451 120.922 167.175 120.922C166.451 120.922 166.451 120.922 165.728 120.922ZM165.728 124.623H166.451C165.728 124.623 165.728 124.623 165.728 124.623ZM165.728 126.844V130.545V133.506H166.451C166.451 133.506 167.175 133.506 167.899 133.506C167.899 133.506 168.623 132.766 169.346 132.766L170.07 131.285C183.098 117.961 190.336 98.7141 190.336 78.7271C190.336 35.7921 157.042 1 115.788 1C98.4173 1 81.7707 7.66232 68.7429 18.0259C80.3231 10.6234 94.0747 6.18181 107.826 6.18181C147.633 6.18181 180.203 38.0129 180.203 77.9868C180.203 90.5712 176.584 102.415 170.794 113.519C170.07 113.519 170.07 113.519 170.07 114.259C169.346 115.74 167.899 117.221 167.175 117.961C166.451 118.701 166.451 119.441 165.728 120.922V124.623V126.844ZM166.451 130.545C167.175 130.545 167.175 130.545 167.175 129.805C167.175 130.545 166.451 130.545 166.451 130.545ZM167.899 128.324C167.175 127.584 167.175 127.584 167.175 126.844C167.175 127.584 167.899 127.584 167.899 128.324Z" fill="#FF0000"/>
<path d="M169.346 132.766C155.595 147.571 136.777 155.714 115.788 155.714C96.246 155.714 78.1518 148.311 65.124 134.987C77.4281 144.61 91.9034 149.052 107.826 149.052C125.197 149.052 141.12 143.13 154.147 132.766C154.871 133.506 155.595 133.506 156.319 133.506C157.766 133.506 159.214 133.506 159.214 132.766C159.937 131.285 160.661 130.545 160.661 129.065V126.844C161.385 126.104 162.109 125.363 162.833 124.623V133.506H164.28H165.728M169.346 132.766C168.623 133.506 167.899 133.506 166.451 133.506M169.346 132.766C168.623 132.766 167.899 133.506 167.899 133.506C167.175 133.506 166.451 133.506 166.451 133.506M169.346 132.766L170.07 131.285C183.098 117.961 190.336 98.7141 190.336 78.7271C190.336 35.7921 157.042 1 115.788 1C98.4173 1 81.7707 7.66232 68.7429 18.0259C80.3231 10.6234 94.0747 6.18181 107.826 6.18181C147.633 6.18181 180.203 38.0129 180.203 77.9868C180.203 90.5712 176.584 102.415 170.794 113.519C170.07 113.519 170.07 113.519 170.07 114.259C169.346 115.74 167.899 117.221 167.175 117.961M166.451 133.506H165.728M165.728 133.506V130.545M166.451 130.545H165.728M166.451 130.545C167.175 130.545 167.175 130.545 167.175 129.805C167.175 130.545 166.451 130.545 166.451 130.545ZM165.728 130.545V126.844M167.175 117.961C167.899 117.961 168.623 117.961 169.346 118.701L167.175 117.961ZM167.175 117.961C166.451 118.701 166.451 119.441 165.728 120.922M167.175 122.402C167.175 123.143 167.175 123.883 167.175 123.883C167.175 123.883 167.175 123.883 167.175 124.623M167.175 122.402C167.175 123.143 167.175 123.883 167.175 124.623M167.175 122.402C167.175 121.662 167.175 121.662 167.175 121.662M167.175 122.402V121.662M167.175 124.623H166.451M167.175 121.662C167.175 120.922 167.175 120.922 167.175 120.922M167.175 121.662C167.175 121.662 167.175 121.662 167.175 120.922M167.175 120.922C166.451 120.922 166.451 120.922 166.451 120.922H165.728M167.175 120.922C166.451 120.922 166.451 120.922 165.728 120.922M165.728 120.922V124.623M166.451 124.623H165.728M166.451 124.623C165.728 124.623 165.728 124.623 165.728 124.623M165.728 124.623V126.844M165.728 126.844H166.451M167.899 125.363C167.899 125.363 167.899 125.363 168.623 125.363M167.899 129.065V128.324M167.899 128.324C167.175 127.584 167.175 127.584 167.175 126.844C167.175 127.584 167.899 127.584 167.899 128.324Z" stroke="#FF0000" stroke-width="0.287895"/>
<path fill-rule="evenodd" clip-rule="evenodd" d="M180.203 77.9869C180.203 90.5713 176.585 102.415 170.795 113.519C170.071 113.519 170.071 113.519 170.071 114.26C169.347 115.74 167.899 117.221 167.176 117.961C168.623 117.961 169.347 118.701 170.071 119.441C170.795 120.182 170.795 120.922 170.795 121.662V122.402C170.795 123.143 170.795 123.143 170.071 124.623C170.071 124.623 169.347 125.363 167.899 125.363C167.899 125.363 170.071 125.363 170.071 126.104C170.795 126.844 170.795 127.584 170.795 128.324V129.065C170.795 129.805 170.795 130.545 170.071 131.285C183.099 117.961 190.336 98.7141 190.336 78.7271C190.336 35.7921 157.043 1 115.788 1C98.4178 1 81.7712 7.66233 68.7434 18.0259C80.3237 10.6234 94.0752 6.18181 107.827 6.18181C147.634 6.18181 180.203 38.0129 180.203 77.9869Z" fill="#FF0000" stroke="#FF0000" stroke-width="0.287895"/>
<path fill-rule="evenodd" clip-rule="evenodd" d="M164.28 126.844V124.623H165.728V120.922C164.28 122.402 163.557 123.142 162.833 124.623V133.506H164.28V130.545H165.728V126.844H164.28Z" fill="#FF0000" stroke="#FF0000" stroke-width="0.287895"/>
<path fill-rule="evenodd" clip-rule="evenodd" d="M167.176 126.844C167.176 127.584 167.899 127.584 167.899 128.324V129.065C167.899 129.805 167.176 129.805 167.176 129.805C167.176 130.545 167.176 130.545 166.452 130.545H165.728V133.506H166.452C167.899 133.506 168.623 133.506 169.347 132.766C169.347 132.766 170.071 132.026 170.071 131.285C183.099 117.961 190.336 98.7141 190.336 78.7271C190.336 35.7921 157.043 1 115.788 1C98.4178 1 81.7712 7.66232 68.7434 18.0259C80.3237 10.6234 94.0752 6.18181 107.827 6.18181C147.634 6.18181 180.203 38.0129 180.203 77.9869C180.203 90.5713 176.585 102.415 170.795 113.519C170.071 113.519 170.071 113.519 170.071 114.26C169.347 115.74 167.899 117.221 167.176 117.961C166.452 118.701 166.452 119.441 165.728 120.922H166.452H167.176C167.176 121.662 167.176 121.662 167.176 122.402C167.176 123.143 167.176 123.883 167.176 123.883C167.176 124.623 166.452 124.623 166.452 124.623H165.728V126.844H166.452H167.176Z" fill="#FF0000"/>
<path d="M170.071 119.441C170.071 119.441 170.071 118.701 169.347 118.701C168.623 117.961 167.899 117.961 167.176 117.961M168.623 125.363C167.899 125.363 167.899 125.363 167.899 125.363M167.176 117.961C167.899 117.221 169.347 115.74 170.071 114.26C170.071 113.519 170.071 113.519 170.795 113.519C176.585 102.415 180.203 90.5713 180.203 77.9869C180.203 38.0129 147.634 6.18181 107.827 6.18181C94.0752 6.18181 80.3237 10.6234 68.7434 18.0259C81.7712 7.66233 98.4178 1 115.788 1C157.043 1 190.336 35.7921 190.336 78.7271C190.336 98.7141 183.099 117.961 170.071 131.285C170.071 132.026 169.347 132.766 169.347 132.766C168.623 133.506 167.899 133.506 166.452 133.506H165.728V130.545H166.452C167.176 130.545 167.176 130.545 167.176 129.805C167.176 129.805 167.899 129.805 167.899 129.065V128.324C167.899 127.584 167.176 127.584 167.176 126.844H166.452H165.728V124.623H166.452C166.452 124.623 167.176 124.623 167.176 123.883C167.176 123.883 167.176 123.143 167.176 122.402C167.176 121.662 167.176 121.662 167.176 120.922H166.452H165.728C166.452 119.441 166.452 118.701 167.176 117.961Z" stroke="#FF0000" stroke-width="0.287895"/>
<path fill-rule="evenodd" clip-rule="evenodd" d="M167.175 122.402V121.662C167.175 121.662 167.175 121.662 167.175 120.922C166.452 120.922 166.452 120.922 165.728 120.922V124.623H166.452H167.175C167.175 123.883 167.175 123.883 167.175 123.883C167.175 123.883 167.175 123.142 167.175 122.402Z" fill="#FF0000" stroke="#FF0000" stroke-width="0.287895"/>
<path fill-rule="evenodd" clip-rule="evenodd" d="M165.728 126.844V124.623H164.281V126.844H165.728Z" fill="#FF0000" stroke="#FF0000" stroke-width="0.287895"/>
<path fill-rule="evenodd" clip-rule="evenodd" d="M165.728 130.545H164.281V133.506H165.728V130.545Z" fill="#FF0000" stroke="#FF0000" stroke-width="0.287895"/>
<path fill-rule="evenodd" clip-rule="evenodd" d="M159.214 132.766C159.937 131.286 160.661 130.545 160.661 129.065V126.844C159.214 127.584 158.49 129.065 157.766 129.805C157.766 129.805 157.766 129.805 157.042 130.545H156.319C155.595 131.286 154.871 132.026 154.147 132.766C154.871 133.506 155.595 133.506 156.319 133.506C157.766 133.506 159.214 133.506 159.214 132.766Z" fill="#FF0000" stroke="#FF0000" stroke-width="0.287895"/>
<path d="M45.3597 106.34C70.4113 118.711 99.2421 111.558 109.755 90.364C120.268 69.17 108.482 41.9604 83.4307 29.5898C58.3791 17.2193 29.5483 24.3721 19.0353 45.5662C8.52229 66.7602 20.3081 93.9697 45.3597 106.34Z" fill="#FF0000"/>
<path d="M56.4387 60.9607C64.4332 60.9607 70.914 54.3322 70.914 46.1555C70.914 37.9788 64.4332 31.3503 56.4387 31.3503C48.4442 31.3503 41.9634 37.9788 41.9634 46.1555C41.9634 54.3322 48.4442 60.9607 56.4387 60.9607Z" fill="#FDD005"/>
<path fill-rule="evenodd" clip-rule="evenodd" d="M65.1238 44.6752C65.1238 49.857 60.7812 55.0389 54.9911 55.0389C52.096 55.0389 49.9247 53.5583 47.7534 52.0778C49.9247 55.0389 52.8198 57.2596 56.4386 57.2596C62.2288 57.2596 66.5714 52.0778 66.5714 46.1558C66.5714 43.1947 65.8476 40.2337 63.6763 38.7532C64.4001 40.2337 65.1238 42.4545 65.1238 44.6752Z" fill="#E6E6E6" fill-opacity="0.4"/>
<path fill-rule="evenodd" clip-rule="evenodd" d="M53.5434 40.2334C55.7147 40.2334 57.1622 41.7139 57.1622 44.6749C57.1622 46.1555 55.7147 48.3762 53.5434 48.3762C51.3721 48.3762 49.9246 46.1555 49.9246 44.6749C49.9246 41.7139 51.3721 40.2334 53.5434 40.2334Z" fill="#E6E6E6" fill-opacity="0.4"/>
</svg>
