<svg width="317" height="103" viewBox="0 0 317 103" fill="none" xmlns="http://www.w3.org/2000/svg">
<g clip-path="url(#clip0_771669_91)">
<path fill-rule="evenodd" clip-rule="evenodd" d="M54.3782 64.7686C58.7674 64.7686 60.962 61.1772 63.1567 61.1772C64.4734 61.1772 67.107 63.4218 67.9848 64.3197C68.8627 64.7686 69.7405 65.2175 70.6184 66.1154L75.0076 69.2578C75.8855 70.1557 76.7633 70.6046 77.2022 71.0535C81.5915 74.196 82.0304 75.9917 85.5418 71.9514C86.4196 71.0535 88.1753 67.0132 86.4196 66.1154L68.8627 58.0347C63.5956 55.7901 67.107 54.8922 65.7902 48.1583C65.3513 47.2605 65.7902 47.7094 64.9124 47.2605C64.0345 52.1987 63.5956 55.3412 60.0842 59.8304L54.3782 64.7686Z" fill="black"/>
<path fill-rule="evenodd" clip-rule="evenodd" d="M107.049 71.5028C99.1481 86.7663 82.0301 96.6427 62.2785 96.6427C47.3551 96.6427 34.1873 91.2556 24.9699 81.8281L24.531 81.3792C19.2639 76.441 16.1914 70.605 13.9968 63.8711C16.6304 85.8684 36.8209 103.377 61.4006 103.377C82.9079 103.377 100.904 89.9088 107.049 71.5028Z" fill="#FF0000" stroke="#FF0000" stroke-width="0.287895"/>
<path fill-rule="evenodd" clip-rule="evenodd" d="M64.9122 93.5C77.641 93.5 89.053 88.5618 97.3926 79.5833C96.9537 80.0322 96.5148 80.0322 95.6369 80.0322H95.198H94.3201H93.4423V74.6451C93.0034 75.094 92.5644 75.543 92.1255 75.9919V77.3387C92.1255 78.2365 91.6866 78.6854 91.2477 79.5833C91.2477 80.0322 90.3698 80.0322 89.492 80.0322C89.053 80.0322 88.6141 80.0322 88.1752 79.5833C80.2746 85.8682 70.6182 89.4596 60.084 89.4596C50.4277 89.4596 41.6492 86.7661 34.1875 80.9301C42.0881 89.0107 53.0612 93.5 64.9122 93.5ZM96.0758 70.6048C96.5148 70.6048 96.9537 70.6048 97.3926 71.0537L96.0758 70.6048ZM96.0758 73.2983C96.0758 73.7473 96.0758 74.1962 96.0758 74.1962C96.0758 74.1962 96.0758 74.1962 96.0758 74.6451C96.0758 74.1962 96.0758 73.7473 96.0758 73.2983ZM96.0758 72.8494C96.0758 72.8494 96.0758 72.8494 96.0758 73.2983V72.8494ZM96.0758 72.4005C96.0758 72.4005 96.0758 72.4005 96.0758 72.8494C96.0758 72.8494 96.0758 72.8494 96.0758 72.4005ZM95.198 72.4005H95.6369C95.6369 72.4005 95.6369 72.4005 96.0758 72.4005C95.6369 72.4005 95.6369 72.4005 95.198 72.4005ZM95.198 74.6451H95.6369C95.198 74.6451 95.198 74.6451 95.198 74.6451ZM95.198 75.9919V78.2365V80.0322H95.6369C95.6369 80.0322 96.0758 80.0322 96.5148 80.0322C96.5148 80.0322 96.9537 79.5833 97.3926 79.5833L97.8315 78.6854C105.732 70.6048 110.121 58.9327 110.121 46.8117C110.121 20.7741 89.9309 -0.325439 64.9122 -0.325439C54.378 -0.325439 44.2828 3.71489 36.3821 9.99984C43.4049 5.51059 51.7445 2.81704 60.084 2.81704C84.2249 2.81704 103.976 22.1208 103.976 46.3628C103.976 53.9945 101.782 61.1773 98.2704 67.9112C97.8315 67.9112 97.8315 67.9112 97.8315 68.3601C97.3926 69.258 96.5148 70.1558 96.0758 70.6048C95.6369 71.0537 95.6369 71.5026 95.198 72.4005V74.6451V75.9919ZM95.6369 78.2365C96.0758 78.2365 96.0758 78.2365 96.0758 77.7876C96.0758 78.2365 95.6369 78.2365 95.6369 78.2365ZM96.5148 76.8897C96.0758 76.4408 96.0758 76.4408 96.0758 75.9919C96.0758 76.4408 96.5148 76.4408 96.5148 76.8897Z" fill="#FF0000"/>
<path d="M97.3926 79.5833C89.053 88.5618 77.641 93.5 64.9122 93.5C53.0612 93.5 42.0881 89.0107 34.1875 80.9301C41.6492 86.7661 50.4277 89.4596 60.084 89.4596C70.6182 89.4596 80.2746 85.8682 88.1752 79.5833C88.6141 80.0322 89.053 80.0322 89.492 80.0322C90.3698 80.0322 91.2477 80.0322 91.2477 79.5833C91.6866 78.6854 92.1255 78.2365 92.1255 77.3387V75.9919C92.5644 75.543 93.0034 75.094 93.4423 74.6451V80.0322H94.3201H95.198M97.3926 79.5833C96.9537 80.0322 96.5148 80.0322 95.6369 80.0322M97.3926 79.5833C96.9537 79.5833 96.5148 80.0322 96.5148 80.0322C96.0758 80.0322 95.6369 80.0322 95.6369 80.0322M97.3926 79.5833L97.8315 78.6854C105.732 70.6048 110.121 58.9327 110.121 46.8117C110.121 20.7741 89.9309 -0.325439 64.9122 -0.325439C54.378 -0.325439 44.2828 3.71489 36.3821 9.99984C43.4049 5.51059 51.7445 2.81704 60.084 2.81704C84.2249 2.81704 103.976 22.1208 103.976 46.3628C103.976 53.9945 101.782 61.1773 98.2704 67.9112C97.8315 67.9112 97.8315 67.9112 97.8315 68.3601C97.3926 69.258 96.5148 70.1558 96.0758 70.6048M95.6369 80.0322H95.198M95.198 80.0322V78.2365M95.6369 78.2365H95.198M95.6369 78.2365C96.0758 78.2365 96.0758 78.2365 96.0758 77.7876C96.0758 78.2365 95.6369 78.2365 95.6369 78.2365ZM95.198 78.2365V75.9919M96.0758 70.6048C96.5148 70.6048 96.9537 70.6048 97.3926 71.0537L96.0758 70.6048ZM96.0758 70.6048C95.6369 71.0537 95.6369 71.5026 95.198 72.4005M96.0758 73.2983C96.0758 73.7473 96.0758 74.1962 96.0758 74.1962C96.0758 74.1962 96.0758 74.1962 96.0758 74.6451M96.0758 73.2983C96.0758 73.7473 96.0758 74.1962 96.0758 74.6451M96.0758 73.2983C96.0758 72.8494 96.0758 72.8494 96.0758 72.8494M96.0758 73.2983V72.8494M96.0758 74.6451H95.6369M96.0758 72.8494C96.0758 72.4005 96.0758 72.4005 96.0758 72.4005M96.0758 72.8494C96.0758 72.8494 96.0758 72.8494 96.0758 72.4005M96.0758 72.4005C95.6369 72.4005 95.6369 72.4005 95.6369 72.4005H95.198M96.0758 72.4005C95.6369 72.4005 95.6369 72.4005 95.198 72.4005M95.198 72.4005V74.6451M95.6369 74.6451H95.198M95.6369 74.6451C95.198 74.6451 95.198 74.6451 95.198 74.6451M95.198 74.6451V75.9919M95.198 75.9919H95.6369M96.5148 75.094C96.5148 75.094 96.5148 75.094 96.9537 75.094M96.5148 77.3387V76.8897M96.5148 76.8897C96.0758 76.4408 96.0758 76.4408 96.0758 75.9919C96.0758 76.4408 96.5148 76.4408 96.5148 76.8897Z" stroke="#FF0000" stroke-width="0.287895"/>
<path fill-rule="evenodd" clip-rule="evenodd" d="M103.977 46.3628C103.977 53.9945 101.782 61.1774 98.2706 67.9112C97.8317 67.9112 97.8317 67.9112 97.8317 68.3602C97.3928 69.258 96.515 70.1559 96.076 70.6048C96.9539 70.6048 97.3928 71.0537 97.8317 71.5026C98.2706 71.9516 98.2706 72.4005 98.2706 72.8494V73.2983C98.2706 73.7473 98.2706 73.7473 97.8317 74.6451C97.8317 74.6451 97.3928 75.094 96.515 75.094C96.515 75.094 97.8317 75.094 97.8317 75.543C98.2706 75.9919 98.2706 76.4408 98.2706 76.8898V77.3387C98.2706 77.7876 98.2706 78.2365 97.8317 78.6855C105.732 70.6048 110.122 58.9327 110.122 46.8117C110.122 20.7741 89.9311 -0.325439 64.9124 -0.325439C54.3782 -0.325439 44.283 3.71489 36.3823 9.99985C43.4051 5.51059 51.7447 2.81704 60.0842 2.81704C84.2251 2.81704 103.977 22.1208 103.977 46.3628Z" fill="#FF0000" stroke="#FF0000" stroke-width="0.287895"/>
<path fill-rule="evenodd" clip-rule="evenodd" d="M94.3202 75.9918V74.645H95.1981V72.4004C94.3202 73.2982 93.8813 73.7472 93.4424 74.645V80.0321H94.3202V78.2364H95.1981V75.9918H94.3202Z" fill="#FF0000" stroke="#FF0000" stroke-width="0.287895"/>
<path fill-rule="evenodd" clip-rule="evenodd" d="M96.076 75.9919C96.076 76.4408 96.515 76.4408 96.515 76.8897V77.3387C96.515 77.7876 96.076 77.7876 96.076 77.7876C96.076 78.2365 96.076 78.2365 95.6371 78.2365H95.1982V80.0322H95.6371C96.515 80.0322 96.9539 80.0322 97.3928 79.5833C97.3928 79.5833 97.8317 79.1344 97.8317 78.6854C105.732 70.6048 110.122 58.9327 110.122 46.8117C110.122 20.7741 89.9311 -0.325439 64.9124 -0.325439C54.3782 -0.325439 44.283 3.71489 36.3823 9.99985C43.4051 5.51059 51.7447 2.81704 60.0842 2.81704C84.2251 2.81704 103.977 22.1208 103.977 46.3628C103.977 53.9945 101.782 61.1773 98.2706 67.9112C97.8317 67.9112 97.8317 67.9112 97.8317 68.3602C97.3928 69.258 96.515 70.1559 96.076 70.6048C95.6371 71.0537 95.6371 71.5026 95.1982 72.4005H95.6371H96.076C96.076 72.8494 96.076 72.8494 96.076 73.2983C96.076 73.7473 96.076 74.1962 96.076 74.1962C96.076 74.6451 95.6371 74.6451 95.6371 74.6451H95.1982V75.9919H95.6371H96.076Z" fill="#FF0000"/>
<path d="M97.8317 71.5026C97.8317 71.5026 97.8317 71.0537 97.3928 71.0537C96.9539 70.6048 96.515 70.6048 96.076 70.6048M96.9539 75.094C96.515 75.094 96.515 75.094 96.515 75.094M96.076 70.6048C96.515 70.1559 97.3928 69.258 97.8317 68.3602C97.8317 67.9112 97.8317 67.9112 98.2706 67.9112C101.782 61.1773 103.977 53.9945 103.977 46.3628C103.977 22.1208 84.2251 2.81704 60.0842 2.81704C51.7447 2.81704 43.4051 5.51059 36.3823 9.99985C44.283 3.71489 54.3782 -0.325439 64.9124 -0.325439C89.9311 -0.325439 110.122 20.7741 110.122 46.8117C110.122 58.9327 105.732 70.6048 97.8317 78.6854C97.8317 79.1344 97.3928 79.5833 97.3928 79.5833C96.9539 80.0322 96.515 80.0322 95.6371 80.0322H95.1982V78.2365H95.6371C96.076 78.2365 96.076 78.2365 96.076 77.7876C96.076 77.7876 96.515 77.7876 96.515 77.3387V76.8897C96.515 76.4408 96.076 76.4408 96.076 75.9919H95.6371H95.1982V74.6451H95.6371C95.6371 74.6451 96.076 74.6451 96.076 74.1962C96.076 74.1962 96.076 73.7473 96.076 73.2983C96.076 72.8494 96.076 72.8494 96.076 72.4005H95.6371H95.1982C95.6371 71.5026 95.6371 71.0537 96.076 70.6048Z" stroke="#FF0000" stroke-width="0.287895"/>
<path fill-rule="evenodd" clip-rule="evenodd" d="M96.0758 73.2982V72.8493C96.0758 72.8493 96.0758 72.8493 96.0758 72.4004C95.6369 72.4004 95.6369 72.4004 95.198 72.4004V74.645H95.6369H96.0758C96.0758 74.1961 96.0758 74.1961 96.0758 74.1961C96.0758 74.1961 96.0758 73.7472 96.0758 73.2982Z" fill="#FF0000" stroke="#FF0000" stroke-width="0.287895"/>
<path fill-rule="evenodd" clip-rule="evenodd" d="M95.1982 75.9918V74.645H94.3203V75.9918H95.1982Z" fill="#FF0000" stroke="#FF0000" stroke-width="0.287895"/>
<path fill-rule="evenodd" clip-rule="evenodd" d="M95.1982 78.2366H94.3203V80.0323H95.1982V78.2366Z" fill="#FF0000" stroke="#FF0000" stroke-width="0.287895"/>
<path fill-rule="evenodd" clip-rule="evenodd" d="M91.2475 79.5833C91.6864 78.6855 92.1254 78.2366 92.1254 77.3387V75.9919C91.2475 76.4409 90.8086 77.3387 90.3697 77.7876C90.3697 77.7876 90.3697 77.7876 89.9307 78.2366H89.4918C89.0529 78.6855 88.614 79.1344 88.175 79.5833C88.614 80.0323 89.0529 80.0323 89.4918 80.0323C90.3697 80.0323 91.2475 80.0323 91.2475 79.5833Z" fill="#FF0000" stroke="#FF0000" stroke-width="0.287895"/>
<path d="M22.2016 63.5576C37.394 71.0596 54.8782 66.7218 61.2538 53.8688C67.6294 41.0158 60.4819 24.5147 45.2895 17.0127C30.0971 9.51059 12.6128 13.8484 6.23728 26.7014C-0.138274 39.5544 7.00918 56.0555 22.2016 63.5576Z" fill="#FF0000"/>
<path d="M28.9203 36.0373C33.7686 36.0373 37.6988 32.0175 37.6988 27.0588C37.6988 22.1001 33.7686 18.0803 28.9203 18.0803C24.0721 18.0803 20.1418 22.1001 20.1418 27.0588C20.1418 32.0175 24.0721 36.0373 28.9203 36.0373Z" fill="#FDD005"/>
<path fill-rule="evenodd" clip-rule="evenodd" d="M34.1873 26.1612C34.1873 29.3037 31.5537 32.4462 28.0423 32.4462C26.2866 32.4462 24.9698 31.5483 23.6531 30.6505C24.9698 32.4462 26.7255 33.793 28.9202 33.793C32.4316 33.793 35.0651 30.6505 35.0651 27.0591C35.0651 25.2634 34.6262 23.4677 33.3094 22.5698C33.7483 23.4677 34.1873 24.8145 34.1873 26.1612Z" fill="#E6E6E6" fill-opacity="0.4"/>
<path fill-rule="evenodd" clip-rule="evenodd" d="M27.1643 23.4675C28.4811 23.4675 29.359 24.3654 29.359 26.1611C29.359 27.0589 28.4811 28.4057 27.1643 28.4057C25.8476 28.4057 24.9697 27.0589 24.9697 26.1611C24.9697 24.3654 25.8476 23.4675 27.1643 23.4675Z" fill="#E6E6E6" fill-opacity="0.4"/>
<path d="M132.915 33.1025C132.587 32.7444 132.176 32.4236 131.684 32.14C131.207 31.8565 130.52 31.7148 129.625 31.7148C128.685 31.7148 127.984 31.8864 127.521 32.2296C127.058 32.5579 126.827 32.9831 126.827 33.5054C126.827 33.6844 126.872 33.8784 126.961 34.0873C127.051 34.2962 127.23 34.4977 127.499 34.6916C127.767 34.8856 128.148 35.0572 128.64 35.2064L132.176 36.2136C133.549 36.5867 134.549 37.191 135.176 38.0266C135.802 38.8473 136.116 39.8023 136.116 40.8915C136.116 41.936 135.847 42.8463 135.31 43.6222C134.773 44.3832 134.004 44.9726 133.005 45.3904C132.005 45.8082 130.819 46.0171 129.446 46.0171C128.431 46.0171 127.476 45.9052 126.581 45.6813C125.701 45.4426 124.917 45.1069 124.231 44.6741C123.559 44.2265 123.03 43.7117 122.642 43.1298C122.567 42.9805 122.537 42.8612 122.552 42.7716C122.567 42.6672 122.642 42.5627 122.776 42.4583L124.499 41.272C124.678 41.1676 124.82 41.1228 124.925 41.1377C125.044 41.1527 125.148 41.2123 125.238 41.3168C125.596 41.7644 125.947 42.1375 126.29 42.4359C126.648 42.7343 127.058 42.9507 127.521 43.085C127.984 43.2193 128.536 43.2864 129.177 43.2864C130.147 43.2864 130.923 43.1372 131.505 42.8388C132.087 42.5254 132.378 42.048 132.378 41.4063C132.378 41.1527 132.318 40.9214 132.199 40.7125C132.079 40.4887 131.886 40.2947 131.617 40.1305C131.363 39.9515 130.998 39.7873 130.52 39.6381L127.14 38.6757C126.26 38.422 125.521 38.0639 124.925 37.6013C124.328 37.1388 123.873 36.5941 123.559 35.9674C123.261 35.3407 123.112 34.6842 123.112 33.9978C123.112 33.0428 123.373 32.1848 123.895 31.4238C124.432 30.6628 125.178 30.066 126.133 29.6332C127.103 29.1856 128.23 28.9618 129.513 28.9618C130.364 28.9618 131.154 29.0587 131.886 29.2527C132.632 29.4467 133.303 29.7153 133.9 30.0585C134.497 30.4017 134.982 30.8195 135.355 31.3119C135.414 31.3865 135.459 31.476 135.489 31.5805C135.519 31.67 135.474 31.767 135.355 31.8715L133.475 33.2592C133.385 33.3188 133.303 33.3412 133.228 33.3263C133.154 33.2965 133.049 33.2219 132.915 33.1025ZM152.114 34.3559C152.114 35.4601 151.853 36.3927 151.33 37.1537C150.808 37.8998 150.092 38.4668 149.182 38.8547C148.286 39.2427 147.242 39.4367 146.048 39.4367H142.691C142.527 39.4367 142.445 39.5188 142.445 39.6829V45.2785C142.445 45.6217 142.251 45.7933 141.863 45.7933H138.998C138.819 45.7933 138.692 45.756 138.617 45.6813C138.557 45.6067 138.528 45.4948 138.528 45.3456V29.6108C138.528 29.3273 138.647 29.1856 138.886 29.1856H145.6C146.794 29.1856 147.883 29.3721 148.868 29.7451C149.868 30.1182 150.659 30.6852 151.241 31.4462C151.823 32.2072 152.114 33.1771 152.114 34.3559ZM148.085 34.2887C148.085 33.7665 147.973 33.3412 147.749 33.013C147.525 32.6698 147.205 32.4161 146.787 32.252C146.369 32.0878 145.891 32.0058 145.354 32.0058H142.87C142.586 32.0058 142.445 32.1326 142.445 32.3863V36.2136C142.445 36.4971 142.549 36.6389 142.758 36.6389H145.511C146.302 36.6389 146.928 36.43 147.391 36.0122C147.854 35.5944 148.085 35.0199 148.085 34.2887ZM158.086 29.1856C158.325 29.1856 158.444 29.3199 158.444 29.5885V45.2561C158.444 45.4501 158.392 45.5918 158.288 45.6813C158.198 45.756 158.049 45.7933 157.84 45.7933H155.02C154.826 45.7933 154.692 45.756 154.617 45.6813C154.557 45.6067 154.527 45.4874 154.527 45.3232V29.6108C154.527 29.3273 154.647 29.1856 154.886 29.1856H158.086ZM175.151 29.1856C175.345 29.1856 175.442 29.2975 175.442 29.5213V45.4351C175.442 45.5396 175.405 45.6291 175.33 45.7037C175.256 45.7634 175.151 45.7933 175.017 45.7933H172.756C172.637 45.7933 172.54 45.7783 172.465 45.7485C172.391 45.7187 172.301 45.644 172.197 45.5247L165.057 35.4974C164.997 35.4228 164.937 35.3929 164.878 35.4079C164.833 35.4228 164.811 35.4676 164.811 35.5422V45.3904C164.826 45.659 164.676 45.7933 164.363 45.7933H162.035C161.737 45.7933 161.588 45.6664 161.588 45.4128V29.6108C161.588 29.3273 161.722 29.1856 161.99 29.1856H164.699C164.863 29.1856 164.982 29.208 165.057 29.2527C165.146 29.2975 165.243 29.387 165.348 29.5213L171.928 38.8995C172.018 39.0189 172.092 39.0711 172.152 39.0562C172.227 39.0413 172.264 38.9667 172.264 38.8324V29.5885C172.264 29.3199 172.398 29.1856 172.667 29.1856H175.151ZM190.01 28.9394C190.994 28.9394 191.86 29.0886 192.606 29.387C193.367 29.6855 193.964 30.0958 194.397 30.618C194.829 31.1403 195.046 31.767 195.046 32.4982C195.046 32.9757 194.904 33.4755 194.62 33.9978C194.352 34.52 193.964 35.0124 193.456 35.475C192.949 35.9376 192.345 36.3405 191.643 36.6837C191.539 36.7433 191.479 36.7956 191.464 36.8403C191.45 36.8851 191.487 36.9597 191.576 37.0642L193.949 39.6605C194.038 39.75 194.113 39.7948 194.173 39.7948C194.232 39.7948 194.314 39.7351 194.419 39.6157C194.598 39.4068 194.777 39.1905 194.956 38.9667C195.135 38.7279 195.307 38.4817 195.471 38.228C195.635 37.9744 195.784 37.7282 195.919 37.4894C196.053 37.2358 196.157 36.997 196.232 36.7732C196.336 36.5643 196.515 36.4971 196.769 36.5717L198.492 37.1313C198.612 37.1611 198.701 37.2358 198.761 37.3551C198.821 37.4745 198.828 37.5939 198.783 37.7132C198.634 38.1012 198.44 38.4966 198.202 38.8995C197.963 39.2875 197.687 39.6978 197.373 40.1305C197.06 40.5633 196.709 41.0184 196.321 41.4959C196.232 41.6301 196.187 41.7197 196.187 41.7644C196.187 41.8092 196.247 41.8689 196.366 41.9435C196.59 42.1226 196.851 42.2792 197.15 42.4135C197.448 42.5329 197.769 42.6374 198.112 42.7269C198.47 42.8015 198.828 42.8463 199.186 42.8612C199.485 42.8761 199.634 43.0179 199.634 43.2864V45.2337C199.634 45.4128 199.589 45.5545 199.5 45.659C199.425 45.7485 199.306 45.7933 199.142 45.7933C198.44 45.7933 197.769 45.7336 197.127 45.6142C196.486 45.4799 195.881 45.2934 195.314 45.0546C194.762 44.801 194.262 44.5175 193.815 44.2041C193.68 44.1295 193.576 44.0922 193.501 44.0922C193.442 44.0922 193.345 44.137 193.21 44.2265C192.479 44.7935 191.688 45.2188 190.838 45.5023C189.987 45.7709 189.032 45.9052 187.973 45.9052C186.242 45.9052 184.892 45.5172 183.922 44.7413C182.967 43.9504 182.489 42.8612 182.489 41.4735C182.489 40.5931 182.78 39.7799 183.362 39.0338C183.959 38.2877 184.914 37.5491 186.227 36.818C186.376 36.7284 186.451 36.6538 186.451 36.5941C186.466 36.5195 186.406 36.4076 186.272 36.2584C185.824 35.7511 185.473 35.2213 185.22 34.6692C184.981 34.1172 184.862 33.58 184.862 33.0577C184.862 32.2669 185.085 31.5656 185.533 30.9538C185.981 30.3271 186.593 29.8347 187.368 29.4766C188.144 29.1184 189.025 28.9394 190.01 28.9394ZM190.166 31.0209C189.778 31.0209 189.443 31.1105 189.159 31.2895C188.876 31.4537 188.659 31.67 188.51 31.9386C188.361 32.1923 188.286 32.4609 188.286 32.7444C188.286 32.9682 188.338 33.1995 188.443 33.4382C188.562 33.662 188.719 33.8859 188.913 34.1097L189.651 34.9826C189.711 35.0423 189.778 35.0721 189.853 35.0721C189.942 35.0572 190.025 35.0348 190.099 35.005C190.741 34.6916 191.218 34.341 191.532 33.953C191.86 33.5651 192.024 33.1323 192.024 32.6548C192.024 32.1326 191.845 31.7297 191.487 31.4462C191.144 31.1627 190.703 31.0209 190.166 31.0209ZM188.488 38.7428C188.383 38.6235 188.286 38.5638 188.197 38.5638C188.107 38.5489 188.003 38.5787 187.883 38.6533C187.376 38.9368 186.966 39.2949 186.652 39.7277C186.354 40.1604 186.205 40.6155 186.205 41.093C186.205 41.4959 186.317 41.8689 186.54 42.2121C186.764 42.5553 187.063 42.8313 187.436 43.0402C187.824 43.2491 188.249 43.3536 188.711 43.3536C189.144 43.3536 189.592 43.2715 190.054 43.1074C190.517 42.9283 190.905 42.7045 191.218 42.4359C191.308 42.3464 191.367 42.2643 191.397 42.1897C191.427 42.1002 191.39 41.9957 191.285 41.8764L188.488 38.7428ZM207.041 29.1856C207.31 29.1856 207.668 29.1856 208.116 29.1856C208.578 29.1856 209.056 29.1856 209.548 29.1856C210.055 29.1856 210.533 29.1856 210.981 29.1856C211.428 29.1856 211.779 29.193 212.033 29.208C214.047 29.2527 215.703 29.6183 217.001 30.3047C218.3 30.9911 219.255 31.9386 219.866 33.1473C220.493 34.341 220.806 35.766 220.806 37.4223C220.806 39.1233 220.478 40.608 219.822 41.8764C219.18 43.1298 218.195 44.0997 216.867 44.7861C215.554 45.4575 213.905 45.7933 211.921 45.7933H207.064C206.72 45.7933 206.549 45.6142 206.549 45.2561V29.6556C206.549 29.4766 206.586 29.3572 206.661 29.2975C206.735 29.2229 206.862 29.1856 207.041 29.1856ZM210.69 31.961C210.54 31.961 210.466 32.0654 210.466 32.2743V42.7269C210.466 42.9358 210.563 43.0402 210.757 43.0402H211.182C212.406 43.0402 213.428 42.8612 214.248 42.5031C215.069 42.13 215.681 41.5332 216.084 40.7125C216.502 39.8918 216.71 38.8025 216.71 37.4447C216.71 36.1316 216.516 35.0796 216.129 34.2887C215.755 33.483 215.174 32.8936 214.383 32.5205C213.607 32.1475 212.615 31.961 211.406 31.961H210.69ZM236.832 45.1889C236.891 45.3531 236.884 45.4948 236.809 45.6142C236.75 45.7336 236.645 45.7933 236.496 45.7933H233.206C232.952 45.7933 232.788 45.659 232.713 45.3904L230.296 39.1233C230.206 38.9144 229.998 38.81 229.669 38.81H227.543C227.439 38.81 227.364 38.8398 227.319 38.8995C227.289 38.9592 227.274 39.0114 227.274 39.0562V45.2561C227.274 45.6142 227.073 45.7933 226.67 45.7933H223.828C223.648 45.7933 223.522 45.756 223.447 45.6813C223.387 45.6067 223.357 45.4948 223.357 45.3456V29.6108C223.357 29.3273 223.477 29.1856 223.716 29.1856H230.699C232.698 29.1856 234.25 29.581 235.354 30.3718C236.474 31.1627 237.033 32.2893 237.033 33.7516C237.033 34.5126 236.891 35.1915 236.608 35.7884C236.324 36.3852 235.951 36.8851 235.489 37.288C235.026 37.6759 234.519 37.9669 233.967 38.1609C233.832 38.2057 233.803 38.3176 233.877 38.4966L236.832 45.1889ZM230.341 36.1689C231.191 36.1689 231.84 35.9898 232.288 35.6317C232.751 35.2586 232.982 34.7215 232.982 34.0202C232.982 33.289 232.751 32.7369 232.288 32.3639C231.825 31.9908 231.214 31.8043 230.453 31.8043H227.7C227.416 31.8043 227.274 31.9311 227.274 32.1848V35.7884C227.274 36.042 227.379 36.1689 227.588 36.1689H230.341ZM243.069 29.1856C243.308 29.1856 243.427 29.3199 243.427 29.5885V45.2561C243.427 45.4501 243.375 45.5918 243.271 45.6813C243.181 45.756 243.032 45.7933 242.823 45.7933H240.003C239.809 45.7933 239.674 45.756 239.6 45.6813C239.54 45.6067 239.51 45.4874 239.51 45.3232V29.6108C239.51 29.3273 239.63 29.1856 239.868 29.1856H243.069ZM260.336 29.1856C260.485 29.1856 260.589 29.2378 260.649 29.3423C260.723 29.4467 260.731 29.5661 260.671 29.7004L255.299 45.3232C255.21 45.6366 254.979 45.7933 254.606 45.7933H251.808C251.42 45.7933 251.181 45.6366 251.092 45.3232L245.765 29.7228C245.72 29.5735 245.727 29.4467 245.787 29.3423C245.862 29.2378 245.974 29.1856 246.123 29.1856H249.346C249.585 29.1856 249.741 29.3124 249.816 29.5661L253.487 40.8915C253.576 41.1303 253.666 41.1228 253.755 40.8691L257.314 29.5661C257.374 29.3124 257.538 29.1856 257.806 29.1856H260.336ZM262.986 29.6108C262.986 29.3273 263.105 29.1856 263.344 29.1856H274.624C274.848 29.1856 274.96 29.3124 274.96 29.5661L274.938 31.5805C274.938 31.8938 274.781 32.0505 274.468 32.0505H267.328C267.044 32.0505 266.902 32.1699 266.902 32.4086V35.6541C266.902 35.9077 267.014 36.0346 267.238 36.0346H271.983C272.237 36.0346 272.364 36.1539 272.364 36.3927V38.5414C272.364 38.6309 272.334 38.7055 272.274 38.7652C272.229 38.8249 272.14 38.8547 272.006 38.8547H267.216C267.007 38.8547 266.902 38.9443 266.902 39.1233V42.6374C266.902 42.8313 266.985 42.9283 267.149 42.9283H274.803C275.072 42.9283 275.206 43.0402 275.206 43.2641V45.3904C275.206 45.5097 275.169 45.6067 275.094 45.6813C275.035 45.756 274.923 45.7933 274.759 45.7933H263.478C263.15 45.7933 262.986 45.6366 262.986 45.3232V29.6108Z" fill="black"/>
<path d="M123.316 52.1217C123.316 52.0417 123.341 51.9767 123.391 51.9267C123.441 51.8767 123.516 51.8517 123.616 51.8517H132.226C132.336 51.8517 132.411 51.8767 132.451 51.9267C132.501 51.9767 132.526 52.0417 132.526 52.1217V53.5166C132.526 53.6666 132.436 53.7416 132.256 53.7416H129.451C129.341 53.7416 129.286 53.7916 129.286 53.8916V62.6966C129.286 62.8866 129.201 62.9816 129.031 62.9816H126.886C126.736 62.9816 126.661 62.8966 126.661 62.7266V53.9366C126.661 53.8066 126.606 53.7416 126.496 53.7416H123.601C123.411 53.7416 123.316 53.6666 123.316 53.5166V52.1217ZM134.081 52.1367C134.081 51.9467 134.161 51.8517 134.321 51.8517H141.881C142.031 51.8517 142.106 51.9367 142.106 52.1067L142.091 53.4566C142.091 53.6666 141.986 53.7716 141.776 53.7716H136.991C136.801 53.7716 136.706 53.8516 136.706 54.0116V56.1866C136.706 56.3566 136.781 56.4416 136.931 56.4416H140.111C140.281 56.4416 140.366 56.5216 140.366 56.6816V58.1216C140.366 58.1816 140.346 58.2316 140.306 58.2716C140.276 58.3116 140.216 58.3316 140.126 58.3316H136.916C136.776 58.3316 136.706 58.3916 136.706 58.5116V60.8666C136.706 60.9966 136.761 61.0616 136.871 61.0616H142.001C142.181 61.0616 142.271 61.1366 142.271 61.2866V62.7116C142.271 62.7916 142.246 62.8566 142.196 62.9066C142.156 62.9566 142.081 62.9816 141.971 62.9816H134.411C134.191 62.9816 134.081 62.8766 134.081 62.6666V52.1367ZM152.985 51.8517C153.115 51.8517 153.18 51.9267 153.18 52.0767V62.7416C153.18 62.8116 153.155 62.8716 153.105 62.9216C153.055 62.9616 152.985 62.9816 152.895 62.9816H151.38C151.3 62.9816 151.235 62.9716 151.185 62.9516C151.135 62.9316 151.075 62.8816 151.005 62.8016L146.22 56.0816C146.18 56.0316 146.14 56.0116 146.1 56.0216C146.07 56.0316 146.055 56.0616 146.055 56.1116V62.7116C146.065 62.8916 145.965 62.9816 145.755 62.9816H144.195C143.995 62.9816 143.895 62.8966 143.895 62.7266V52.1367C143.895 51.9467 143.985 51.8517 144.165 51.8517H145.98C146.09 51.8517 146.17 51.8667 146.22 51.8967C146.28 51.9267 146.345 51.9867 146.415 52.0767L150.825 58.3616C150.885 58.4416 150.935 58.4766 150.975 58.4666C151.025 58.4566 151.05 58.4066 151.05 58.3166V52.1217C151.05 51.9417 151.14 51.8517 151.32 51.8517H152.985ZM164.367 51.8517C164.497 51.8517 164.562 51.9267 164.562 52.0767V62.7416C164.562 62.8116 164.537 62.8716 164.487 62.9216C164.437 62.9616 164.367 62.9816 164.277 62.9816H162.762C162.682 62.9816 162.617 62.9716 162.567 62.9516C162.517 62.9316 162.457 62.8816 162.387 62.8016L157.602 56.0816C157.562 56.0316 157.522 56.0116 157.482 56.0216C157.452 56.0316 157.437 56.0616 157.437 56.1116V62.7116C157.447 62.8916 157.347 62.9816 157.137 62.9816H155.577C155.377 62.9816 155.277 62.8966 155.277 62.7266V52.1367C155.277 51.9467 155.367 51.8517 155.547 51.8517H157.362C157.472 51.8517 157.552 51.8667 157.602 51.8967C157.662 51.9267 157.727 51.9867 157.797 52.0767L162.207 58.3616C162.267 58.4416 162.317 58.4766 162.357 58.4666C162.407 58.4566 162.432 58.4066 162.432 58.3166V52.1217C162.432 51.9417 162.522 51.8517 162.702 51.8517H164.367ZM169.043 51.8517C169.203 51.8517 169.283 51.9417 169.283 52.1217V62.6216C169.283 62.7516 169.248 62.8466 169.178 62.9066C169.118 62.9566 169.018 62.9816 168.878 62.9816H166.988C166.858 62.9816 166.768 62.9566 166.718 62.9066C166.678 62.8566 166.658 62.7766 166.658 62.6666V52.1367C166.658 51.9467 166.738 51.8517 166.898 51.8517H169.043ZM177.78 54.4766C177.56 54.2366 177.285 54.0216 176.955 53.8316C176.635 53.6416 176.175 53.5466 175.575 53.5466C174.945 53.5466 174.475 53.6616 174.165 53.8916C173.855 54.1116 173.7 54.3966 173.7 54.7466C173.7 54.8666 173.73 54.9966 173.79 55.1366C173.85 55.2766 173.97 55.4116 174.15 55.5416C174.33 55.6716 174.585 55.7866 174.915 55.8866L177.285 56.5616C178.205 56.8116 178.875 57.2166 179.295 57.7766C179.715 58.3266 179.925 58.9666 179.925 59.6966C179.925 60.3966 179.745 61.0066 179.385 61.5266C179.025 62.0366 178.51 62.4316 177.84 62.7116C177.17 62.9916 176.375 63.1316 175.455 63.1316C174.775 63.1316 174.135 63.0566 173.535 62.9066C172.945 62.7466 172.42 62.5216 171.96 62.2316C171.51 61.9316 171.155 61.5866 170.895 61.1966C170.845 61.0966 170.825 61.0166 170.835 60.9566C170.845 60.8866 170.895 60.8166 170.985 60.7466L172.14 59.9516C172.26 59.8816 172.355 59.8516 172.425 59.8616C172.505 59.8716 172.575 59.9116 172.635 59.9816C172.875 60.2816 173.11 60.5316 173.34 60.7316C173.58 60.9316 173.855 61.0766 174.165 61.1666C174.475 61.2566 174.845 61.3016 175.275 61.3016C175.925 61.3016 176.445 61.2016 176.835 61.0016C177.225 60.7916 177.42 60.4716 177.42 60.0416C177.42 59.8716 177.38 59.7166 177.3 59.5766C177.22 59.4266 177.09 59.2966 176.91 59.1866C176.74 59.0666 176.495 58.9566 176.175 58.8566L173.91 58.2116C173.32 58.0416 172.825 57.8016 172.425 57.4916C172.025 57.1816 171.72 56.8166 171.51 56.3966C171.31 55.9766 171.21 55.5366 171.21 55.0766C171.21 54.4366 171.385 53.8616 171.735 53.3516C172.095 52.8417 172.595 52.4417 173.235 52.1517C173.885 51.8517 174.64 51.7017 175.5 51.7017C176.07 51.7017 176.6 51.7667 177.09 51.8967C177.59 52.0267 178.04 52.2067 178.44 52.4367C178.84 52.6667 179.165 52.9467 179.415 53.2767C179.455 53.3267 179.485 53.3866 179.505 53.4566C179.525 53.5166 179.495 53.5816 179.415 53.6516L178.155 54.5816C178.095 54.6216 178.04 54.6366 177.99 54.6266C177.94 54.6066 177.87 54.5566 177.78 54.4766ZM189.252 63.1316C188.242 63.1316 187.357 62.8966 186.597 62.4266C185.847 61.9566 185.267 61.2966 184.857 60.4466C184.447 59.5966 184.242 58.6016 184.242 57.4616C184.242 56.2816 184.457 55.2616 184.887 54.4016C185.317 53.5416 185.917 52.8767 186.687 52.4067C187.467 51.9367 188.372 51.7017 189.402 51.7017C190.212 51.7017 190.937 51.8567 191.577 52.1667C192.217 52.4767 192.732 52.8717 193.122 53.3516C193.522 53.8316 193.772 54.3416 193.872 54.8816C193.912 55.0316 193.917 55.1316 193.887 55.1816C193.867 55.2316 193.807 55.2666 193.707 55.2866L191.727 55.5866C191.637 55.5866 191.577 55.5666 191.547 55.5266C191.527 55.4866 191.507 55.4266 191.487 55.3466C191.427 55.0166 191.302 54.7166 191.112 54.4466C190.932 54.1766 190.692 53.9616 190.392 53.8016C190.102 53.6316 189.752 53.5466 189.342 53.5466C188.852 53.5466 188.427 53.6766 188.067 53.9366C187.717 54.1966 187.447 54.6066 187.257 55.1666C187.077 55.7266 186.987 56.4616 186.987 57.3716C186.987 58.3316 187.082 59.0966 187.272 59.6666C187.472 60.2366 187.752 60.6516 188.112 60.9116C188.482 61.1616 188.922 61.2866 189.432 61.2866C189.752 61.2866 190.032 61.2416 190.272 61.1516C190.522 61.0516 190.732 60.9216 190.902 60.7616C191.082 60.6016 191.227 60.4216 191.337 60.2216C191.447 60.0116 191.527 59.7966 191.577 59.5766L191.607 59.1416C191.647 58.9916 191.597 58.9166 191.457 58.9166H189.642C189.562 58.9166 189.502 58.9016 189.462 58.8716C189.422 58.8316 189.402 58.7616 189.402 58.6616V57.5366C189.402 57.3966 189.482 57.3266 189.642 57.3266L193.647 57.3416C193.797 57.3416 193.907 57.3766 193.977 57.4466C194.047 57.5066 194.082 57.5916 194.082 57.7016V62.7566C194.082 62.8266 194.062 62.8816 194.022 62.9216C193.982 62.9616 193.927 62.9816 193.857 62.9816H193.377C193.297 62.9816 193.227 62.9666 193.167 62.9366C193.107 62.8966 193.047 62.8316 192.987 62.7416L192.552 61.6616C192.542 61.6316 192.522 61.6166 192.492 61.6166C192.472 61.6166 192.442 61.6416 192.402 61.6916C192.222 61.9116 191.997 62.1366 191.727 62.3666C191.457 62.5866 191.122 62.7716 190.722 62.9216C190.322 63.0616 189.832 63.1316 189.252 63.1316ZM204.508 51.8517C204.608 51.8517 204.673 51.8817 204.703 51.9417C204.733 51.9917 204.723 52.0617 204.673 52.1517L201.148 57.9266C201.088 58.0166 201.053 58.1116 201.043 58.2116C201.033 58.3016 201.028 58.4716 201.028 58.7216V62.6216C201.028 62.8616 200.888 62.9816 200.608 62.9816H198.733C198.603 62.9816 198.513 62.9566 198.463 62.9066C198.423 62.8566 198.403 62.7766 198.403 62.6666V58.6316C198.403 58.4916 198.388 58.3866 198.358 58.3166C198.328 58.2466 198.283 58.1666 198.223 58.0766L194.668 52.1967C194.608 52.0967 194.598 52.0167 194.638 51.9567C194.678 51.8867 194.763 51.8517 194.893 51.8517H197.143C197.273 51.8517 197.363 51.8717 197.413 51.9117C197.463 51.9517 197.518 52.0217 197.578 52.1217L199.798 56.0216C199.858 56.1216 199.908 56.1766 199.948 56.1866C199.988 56.1866 200.033 56.1416 200.083 56.0516L202.273 52.1217C202.333 52.0117 202.388 51.9417 202.438 51.9117C202.498 51.8717 202.588 51.8517 202.708 51.8517H204.508ZM206.553 62.9816C206.343 62.9816 206.238 62.8666 206.238 62.6366V52.1367C206.238 51.9467 206.323 51.8517 206.493 51.8517H209.598C209.708 51.8517 209.788 51.8667 209.838 51.8967C209.888 51.9267 209.928 51.9867 209.958 52.0767L212.223 58.3616C212.253 58.4516 212.288 58.4966 212.328 58.4966C212.368 58.4866 212.403 58.4416 212.433 58.3616L214.593 52.1967C214.653 51.9667 214.763 51.8517 214.923 51.8517H218.148C218.298 51.8517 218.373 51.9417 218.373 52.1217V62.6216C218.373 62.8616 218.248 62.9816 217.998 62.9816H216.063C215.943 62.9816 215.858 62.9566 215.808 62.9066C215.768 62.8566 215.748 62.7816 215.748 62.6816V55.2116C215.748 55.1416 215.728 55.1116 215.688 55.1216C215.658 55.1216 215.633 55.1566 215.613 55.2266L212.988 62.7416C212.928 62.9016 212.823 62.9816 212.673 62.9816H211.428C211.258 62.9816 211.148 62.9016 211.098 62.7416L208.503 55.3316C208.473 55.2416 208.438 55.2016 208.398 55.2116C208.368 55.2216 208.353 55.2666 208.353 55.3466V62.7116C208.353 62.8116 208.333 62.8816 208.293 62.9216C208.263 62.9616 208.193 62.9816 208.083 62.9816H206.553Z" fill="#FF0000"/>
</g>
<defs>
<clipPath id="clip0_771669_91">
<rect width="317" height="103" fill="white"/>
</clipPath>
</defs>
</svg>
